<svg width="404" height="134" viewBox="0 0 404 134" fill="none" xmlns="http://www.w3.org/2000/svg">
<path d="M82.4443 55.1748C89.6731 49.4229 91.6656 43.1104 86.78 35.7039C79.0715 24.0181 51.4434 24.9506 39.522 32.7101C23.4231 43.1885 12.9335 60.4202 13.5561 81.6097C14.1489 101.787 22.8615 121.444 42.1186 129.511C55.3178 135.041 77.8695 134.776 85.8177 123.24C91.0792 115.603 89.4028 103.615 82.4443 97.3557C75.9299 91.4961 61.7217 101.19 54.4929 98.7937C44.9513 95.6303 42.8895 89.8012 42.1186 80.0999C41.2412 69.0591 45.7019 61.5694 56.4206 57.5715C64.1313 54.6955 75.5909 60.628 82.4443 55.1748Z" fill="#D67030"/>
<g filter="url(#filter0_d_47_1163)">
<path d="M49.674 34.5636C45.8186 36.0015 35.6983 39.8363 28.9515 41.2742C28.9515 41.2742 26.7116 35.6371 21.2408 33.1257C16.1144 30.7724 5.81934 33.1257 5.81934 33.1257C5.81934 33.1257 13.5951 23.7645 18.8312 22.1011C25.3471 20.031 30.8791 23.539 30.8791 23.539C30.8791 23.539 29.9475 15.4128 27.9876 11.5558C26.0277 7.6988 18.8312 6.76245 18.8312 6.76245C18.8312 6.76245 30.1081 1.58238 34.2526 3.40733C39.3692 5.66034 44.8548 17.3077 44.8548 17.3077C44.8548 17.3077 48.8968 5.27559 53.0474 3.40733C57.8971 1.22443 68.9508 3.40727 68.9508 3.40727C68.9508 3.40727 58.936 6.87605 59.3124 11.5558C59.6888 16.2355 61.722 20.6631 64.6135 26.8944C64.6135 26.8944 53.5294 33.1257 49.674 34.5636Z" fill="#DDA15E"/>
<ellipse cx="4.37344" cy="34.0843" rx="3.37344" ry="3.3553" fill="#9BA646"/>
<ellipse cx="15.9394" cy="7.2419" rx="3.37344" ry="3.3553" fill="#9BA646"/>
<ellipse cx="70.8783" cy="4.36592" rx="3.37344" ry="3.3553" fill="#9BA646"/>
</g>
<ellipse cx="31.6023" cy="16.1251" rx="0.722879" ry="0.718993" fill="#CB9253"/>
<ellipse cx="30.6384" cy="12.2905" rx="0.722879" ry="0.718993" fill="#CB9253"/>
<ellipse cx="28.7107" cy="9.41455" rx="0.722879" ry="0.718993" fill="#CB9253"/>
<ellipse cx="25.8191" cy="7.49719" rx="0.722879" ry="0.718993" fill="#CB9253"/>
<ellipse cx="32.5661" cy="19.9597" rx="0.722879" ry="0.718993" fill="#CB9253"/>
<ellipse cx="34.4934" cy="17.0837" rx="0.722879" ry="0.718993" fill="#CB9253"/>
<ellipse cx="33.53" cy="13.2491" rx="0.722879" ry="0.718993" fill="#CB9253"/>
<ellipse cx="32.5661" cy="9.41455" rx="0.722879" ry="0.718993" fill="#CB9253"/>
<ellipse cx="29.6745" cy="6.53857" rx="0.722879" ry="0.718993" fill="#CB9253"/>
<ellipse cx="28.9511" cy="45.1089" rx="0.963839" ry="0.958658" fill="#C2672D"/>
<ellipse cx="30.8789" cy="49.9021" rx="0.963839" ry="0.958658" fill="#C2672D"/>
<ellipse cx="34.7343" cy="44.1502" rx="0.963839" ry="0.958658" fill="#C2672D"/>
<ellipse cx="20.2768" cy="86.3312" rx="0.963839" ry="0.958658" fill="#C2672D"/>
<ellipse cx="27.9873" cy="54.6955" rx="0.963839" ry="0.958658" fill="#C2672D"/>
<ellipse cx="26.0595" cy="60.4474" rx="0.963839" ry="0.958658" fill="#C2672D"/>
<ellipse cx="23.1684" cy="66.1994" rx="0.963839" ry="0.958658" fill="#C2672D"/>
<ellipse cx="21.2407" cy="72.91" rx="0.963839" ry="0.958658" fill="#C2672D"/>
<ellipse cx="21.2407" cy="79.6205" rx="0.963839" ry="0.958658" fill="#C2672D"/>
<ellipse cx="25.0957" cy="50.8609" rx="0.963839" ry="0.958658" fill="#C2672D"/>
<ellipse cx="22.2046" cy="56.6128" rx="0.963839" ry="0.958658" fill="#C2672D"/>
<ellipse cx="19.313" cy="62.3647" rx="0.963839" ry="0.958658" fill="#C2672D"/>
<ellipse cx="17.3852" cy="69.0754" rx="0.963839" ry="0.958658" fill="#C2672D"/>
<ellipse cx="16.4214" cy="75.7859" rx="0.963839" ry="0.958658" fill="#C2672D"/>
<ellipse cx="16.4214" cy="82.4965" rx="0.963839" ry="0.958658" fill="#C2672D"/>
<path d="M106.256 71.8454C108.135 69.9141 109.826 68.9539 112.521 68.9539C113.147 68.9539 113.718 69.0057 114.251 69.1094V55.9881C114.251 55.9881 112.488 55.905 111.359 55.9392C105.7 56.1106 102.141 56.7255 97.3838 59.7945C94.0289 61.9587 92.0827 63.6499 90.155 67.0233C88.2273 70.3967 86.488 76.2869 86.7815 82.4447C87.0229 87.5065 88.2273 90.6403 88.2273 90.6403C88.2273 90.6403 90.4662 96.5157 93.0464 99.3119C95.2885 101.742 96.9157 102.985 99.7933 104.613C102.229 105.99 107.986 106.541 107.986 106.541C108.95 106.719 117.624 106.908 120.516 106.059C123.407 105.209 126.228 104.081 129.19 101.722C132.548 99.0479 134.1 96.9255 135.937 93.047C137.991 88.7106 138.347 80.999 138.347 80.999C138.259 76.1611 137.735 73.3322 135.455 68.951C133.647 65.4762 131.742 63.237 128.708 60.7583C126.557 59 122.444 57.3849 122.444 57.3849C122.444 57.3849 118.106 55.9391 115.055 55.9881V69.3142C116.434 69.7539 117.571 70.5967 118.786 71.8454C121.364 74.4956 121.15 77.3046 121.196 81.0019C121.243 84.8815 121.509 87.8761 118.786 90.6403C116.895 92.5601 115.216 93.5318 112.521 93.5318C109.826 93.5318 108.147 92.5601 106.256 90.6403C103.533 87.8761 103.799 84.8815 103.846 81.0019C103.892 77.3046 103.678 74.4956 106.256 71.8454Z" fill="#D67030"/>
<circle cx="100.65" cy="61.1337" r="0.963839" transform="rotate(-145.738 100.65 61.1337)" fill="#C2672D"/>
<circle cx="92.9399" cy="70.7794" r="0.963839" transform="rotate(-145.738 92.9399 70.7794)" fill="#C2672D"/>
<circle cx="95.8315" cy="64.989" r="0.963839" transform="rotate(-145.738 95.8315 64.989)" fill="#C2672D"/>
<circle cx="91.0121" cy="76.5551" r="0.963839" transform="rotate(-145.738 91.0121 76.5551)" fill="#C2672D"/>
<circle cx="96.7949" cy="74.6275" r="0.963839" transform="rotate(-145.738 96.7949 74.6275)" fill="#C2672D"/>
<circle cx="93.9037" cy="81.3743" r="0.963839" transform="rotate(-145.738 93.9037 81.3743)" fill="#C2672D"/>
<circle cx="99.6865" cy="68.8444" r="0.963839" transform="rotate(-145.738 99.6865 68.8444)" fill="#C2672D"/>
<circle cx="105.47" cy="59.2061" r="0.963839" transform="rotate(-145.738 105.47 59.2061)" fill="#C2672D"/>
<circle cx="104.506" cy="64.0252" r="0.963839" transform="rotate(-145.738 104.506 64.0252)" fill="#C2672D"/>
<path d="M166.298 69.433C165.393 69.7524 164.371 70.3968 164.371 70.3968V105.095C164.371 105.095 162.052 105.842 160.515 106.059C158.465 106.348 157.266 106.337 155.214 106.059C154.263 105.93 153.725 105.848 152.805 105.577C151.832 105.291 151.227 105.191 150.395 104.613C149.739 104.157 149.405 103.823 148.949 103.167C148.494 102.512 147.985 100.758 147.985 98.8301C147.985 96.9024 147.985 94.4928 147.985 94.4928V67.9872V66.0596C147.985 66.0596 148.467 64.1319 150.877 62.2042C153.286 60.2765 154.776 59.398 157.624 58.3488C160.471 57.2996 161.978 56.9414 164.853 56.4212C166.162 56.1842 166.899 56.0449 168.226 55.9393C169.914 55.8048 172.081 55.9393 172.563 55.9393C173.045 55.9392 175.543 55.9804 177.382 56.4212C179.312 56.8836 180.922 57.7001 182.125 58.3099L182.202 58.3488C183.412 58.9625 185.093 60.2765 185.093 60.2765H185.575C185.575 60.2765 187.256 58.9625 188.467 58.3488C189.677 57.7352 191.325 56.9347 193.286 56.4212C194.214 56.178 194.746 56.0777 195.695 55.9393C198.303 55.559 202.442 55.9393 202.442 55.9393C202.442 55.9393 204.806 56.1436 206.298 56.4212C206.298 56.4212 209.983 56.9446 213.044 58.8308C216.106 60.717 217.821 62.3044 219.309 65.5777C219.802 66.6613 220.273 68.4692 220.273 68.4692C220.273 68.4692 220.755 70.3969 220.755 71.8426L220.755 105.095C220.755 105.095 217.553 105.913 215.454 106.059C214.14 106.15 212.831 106.124 212.081 106.059C211.331 105.994 204.37 105.577 204.37 100.758C204.37 95.9386 204.37 99.7705 204.37 99.1379V74.2522C204.37 74.2522 204.458 72.3537 203.888 71.3607C203.318 70.3677 202.582 69.9163 201.478 69.433C200.768 69.1218 200.321 69.0445 199.551 68.9511C198.803 68.8605 198.373 68.8859 197.623 68.9511C196.667 69.0342 195.213 69.433 195.213 69.433C195.213 69.433 193.925 69.8491 193.286 70.3968C193.084 70.5701 192.804 70.8788 192.804 70.8788V72.3245V105.095C192.804 105.095 191.341 105.42 190.394 105.577C188.528 105.887 185.575 106.059 185.575 106.059C183.1 106.035 181.488 106.272 179.31 105.095C178.713 104.772 178.37 104.584 177.864 104.131C177.163 103.504 176.806 103.061 176.419 102.204C176.099 101.497 176.017 101.048 175.937 100.276V77.1438V76.6618C175.937 75.5326 175.937 74.7342 175.937 73.7703C175.937 72.8064 175.497 71.4179 174.491 70.3968C173.485 69.3758 171.934 69.088 170.154 68.9511C169.591 68.9078 169.271 68.9099 168.708 68.9511C167.751 69.0211 167.203 69.1136 166.298 69.433Z" fill="#D67030"/>
<circle cx="157.517" cy="61.1337" r="0.963839" transform="rotate(-145.738 157.517 61.1337)" fill="#C2672D"/>
<circle cx="150.77" cy="65.9529" r="0.963839" transform="rotate(-145.738 150.77 65.9529)" fill="#C2672D"/>
<circle cx="153.662" cy="63.0614" r="0.963839" transform="rotate(-145.738 153.662 63.0614)" fill="#C2672D"/>
<circle cx="149.807" cy="69.8083" r="0.963839" transform="rotate(-145.738 149.807 69.8083)" fill="#C2672D"/>
<circle cx="160.409" cy="64.0253" r="0.963839" transform="rotate(-145.738 160.409 64.0253)" fill="#C2672D"/>
<circle cx="153.662" cy="72.6999" r="0.963839" transform="rotate(-145.738 153.662 72.6999)" fill="#C2672D"/>
<circle cx="149.807" cy="74.6275" r="0.963839" transform="rotate(-145.738 149.807 74.6275)" fill="#C2672D"/>
<circle cx="153.662" cy="68.8444" r="0.963839" transform="rotate(-145.738 153.662 68.8444)" fill="#C2672D"/>
<circle cx="161.372" cy="60.1699" r="0.963839" transform="rotate(-145.738 161.372 60.1699)" fill="#C2672D"/>
<circle cx="156.553" cy="65.9529" r="0.963839" transform="rotate(-145.738 156.553 65.9529)" fill="#C2672D"/>
<circle cx="179.685" cy="102.579" r="0.963839" transform="rotate(-145.738 179.685 102.579)" fill="#C2672D"/>
<circle cx="177.758" cy="98.7235" r="0.963839" transform="rotate(-145.738 177.758 98.7235)" fill="#C2672D"/>
<circle cx="177.758" cy="94.8682" r="0.963839" transform="rotate(-145.738 177.758 94.8682)" fill="#C2672D"/>
<circle cx="183.54" cy="103.543" r="0.963839" transform="rotate(-145.738 183.54 103.543)" fill="#C2672D"/>
<circle cx="187.396" cy="103.543" r="0.963839" transform="rotate(-145.738 187.396 103.543)" fill="#C2672D"/>
<circle cx="180.649" cy="95.8319" r="0.963839" transform="rotate(-145.738 180.649 95.8319)" fill="#C2672D"/>
<circle cx="181.613" cy="99.6873" r="0.963839" transform="rotate(-145.738 181.613 99.6873)" fill="#C2672D"/>
<circle cx="185.468" cy="100.651" r="0.963839" transform="rotate(-145.738 185.468 100.651)" fill="#C2672D"/>
<path d="M235.695 97.7152V57.8669L240.996 57.385C240.996 57.385 244.57 56.9145 246.779 57.385C248.352 57.72 249.189 57.8669 250.634 58.8308C252.08 59.7947 252.562 60.7584 252.562 65.0957V104.613C252.562 104.613 251.687 104.925 251.116 105.095C248.968 105.735 248.824 106.008 246.297 106.059C244.406 106.097 242.267 106.287 240.514 105.577C239.256 105.068 238.511 104.675 237.623 103.649C236.796 102.695 236.558 101.961 236.177 100.758C235.814 99.6109 235.695 97.7152 235.695 97.7152Z" fill="#D67030"/>
<ellipse cx="243.887" cy="44.3731" rx="9.63839" ry="9.63839" fill="#D67030"/>
<circle cx="240.408" cy="102.579" r="0.963839" transform="rotate(-145.738 240.408 102.579)" fill="#C2672D"/>
<circle cx="238.48" cy="98.7235" r="0.963839" transform="rotate(-145.738 238.48 98.7235)" fill="#C2672D"/>
<circle cx="238.48" cy="94.8682" r="0.963839" transform="rotate(-145.738 238.48 94.8682)" fill="#C2672D"/>
<circle cx="244.263" cy="103.543" r="0.963839" transform="rotate(-145.738 244.263 103.543)" fill="#C2672D"/>
<circle cx="248.118" cy="103.543" r="0.963839" transform="rotate(-145.738 248.118 103.543)" fill="#C2672D"/>
<circle cx="241.372" cy="95.8319" r="0.963839" transform="rotate(-145.738 241.372 95.8319)" fill="#C2672D"/>
<circle cx="242.335" cy="99.6873" r="0.963839" transform="rotate(-145.738 242.335 99.6873)" fill="#C2672D"/>
<circle cx="246.19" cy="100.651" r="0.963839" transform="rotate(-145.738 246.19 100.651)" fill="#C2672D"/>
<circle cx="238.48" cy="49.5678" r="0.963839" transform="rotate(-145.738 238.48 49.5678)" fill="#C2672D"/>
<circle cx="236.552" cy="45.7124" r="0.963839" transform="rotate(-145.738 236.552 45.7124)" fill="#C2672D"/>
<circle cx="236.552" cy="41.8571" r="0.963839" transform="rotate(-145.738 236.552 41.8571)" fill="#C2672D"/>
<circle cx="242.335" cy="50.5315" r="0.963839" transform="rotate(-145.738 242.335 50.5315)" fill="#C2672D"/>
<circle cx="246.19" cy="50.5315" r="0.963839" transform="rotate(-145.738 246.19 50.5315)" fill="#C2672D"/>
<circle cx="239.444" cy="42.8208" r="0.963839" transform="rotate(-145.738 239.444 42.8208)" fill="#C2672D"/>
<circle cx="240.408" cy="46.6762" r="0.963839" transform="rotate(-145.738 240.408 46.6762)" fill="#C2672D"/>
<circle cx="244.263" cy="47.64" r="0.963839" transform="rotate(-145.738 244.263 47.64)" fill="#C2672D"/>
<path d="M295.934 91.6013V69.9149C295.934 69.4329 290.633 68.9606 290.633 68.9606V56.1658C290.723 56.0871 294.81 56.6987 295.934 56.903V40.9997C297.898 39.7499 301.718 39.554 301.718 39.554C301.718 39.554 305.573 39.072 307.501 40.0359C307.501 40.0359 309.428 40.5178 310.392 41.9635C310.392 41.9635 311.356 42.9274 311.838 44.3731L312.32 45.8189C312.32 45.8189 312.32 75.6979 312.32 94.4928C312.32 94.4928 312.32 97.8662 310.392 100.276C308.464 102.685 306.248 103.462 303.163 104.613C300.466 105.62 295.934 106.541 295.934 106.541C292.571 106.988 290.16 106.812 286.778 106.541C286.778 106.541 281.631 105.849 278.586 104.613C275.535 103.375 273.775 102.51 271.357 100.276C269.587 98.64 268.786 97.496 267.501 95.4566C266.38 93.6761 265.772 92.6285 265.092 90.6374C264.531 88.9955 264.315 88.0252 264.128 86.3001C263.94 84.5751 263.936 80.389 264.128 78.1075C264.319 75.826 265.574 70.8787 265.574 70.8787C265.574 70.8787 266.707 67.1831 267.983 65.0957C269.581 62.4818 269.903 62.1591 272.32 60.2765C273.391 59.4425 275.212 58.3488 275.212 58.3488C279.067 55.9392 284.368 55.9392 284.368 55.9392C286.111 55.9392 288.211 55.9199 290.151 56.1124V68.9606C288.397 69.0282 286.778 69.433 286.778 69.433C284.138 70.3591 282.876 71.8294 281.477 74.2522C280.077 76.6749 280.031 81.4809 280.513 83.8906C280.995 86.3002 281.952 90.6704 285.332 92.5651C288.713 94.4598 292.079 93.5289 292.079 93.5289C293.718 93.1434 295.934 91.6013 295.934 91.6013Z" fill="#D67030"/>
<circle cx="277.033" cy="60.1699" r="0.963839" transform="rotate(-145.738 277.033 60.1699)" fill="#C2672D"/>
<circle cx="269.322" cy="69.8158" r="0.963839" transform="rotate(-145.738 269.322 69.8158)" fill="#C2672D"/>
<circle cx="272.214" cy="64.0253" r="0.963839" transform="rotate(-145.738 272.214 64.0253)" fill="#C2672D"/>
<circle cx="267.394" cy="75.5913" r="0.963839" transform="rotate(-145.738 267.394 75.5913)" fill="#C2672D"/>
<circle cx="273.177" cy="73.6637" r="0.963839" transform="rotate(-145.738 273.177 73.6637)" fill="#C2672D"/>
<circle cx="270.286" cy="80.4106" r="0.963839" transform="rotate(-145.738 270.286 80.4106)" fill="#C2672D"/>
<circle cx="276.069" cy="67.8806" r="0.963839" transform="rotate(-145.738 276.069 67.8806)" fill="#C2672D"/>
<circle cx="281.852" cy="58.2423" r="0.963839" transform="rotate(-145.738 281.852 58.2423)" fill="#C2672D"/>
<circle cx="280.888" cy="63.0614" r="0.963839" transform="rotate(-145.738 280.888 63.0614)" fill="#C2672D"/>
<g filter="url(#filter1_d_47_1163)">
<path d="M324.986 97.2661V57.4178L330.287 56.9359C330.287 56.9359 333.861 56.4654 336.07 56.9359C337.643 57.2709 338.48 57.4178 339.925 58.3817C341.371 59.3456 341.853 60.3093 341.853 64.6466V104.164C341.853 104.164 340.978 104.476 340.407 104.646C338.259 105.286 338.115 105.559 335.588 105.61C333.697 105.648 331.558 105.838 329.805 105.128C328.547 104.618 327.802 104.226 326.914 103.2C326.087 102.246 325.849 101.512 325.468 100.309C325.105 99.1618 324.986 97.2661 324.986 97.2661Z" fill="#D67030"/>
</g>
<path d="M340.408 32.149L325.95 42.2693C325.95 42.2693 324.872 43.331 324.504 44.197C323.764 45.9376 323.6 47.3547 324.504 49.0162C325.333 50.5404 326.748 51.2644 328.359 51.9077C329.423 52.3321 331.251 52.3896 331.251 52.3896C340.408 47.5705 340.408 47.5704 346.19 44.679L346.19 44.6789C346.19 44.6789 348.402 42.9018 349.082 41.3055C349.967 39.2277 350.183 37.4945 349.082 35.5224C348.165 33.879 346.98 32.8335 345.227 32.1489C343.465 31.461 340.408 32.149 340.408 32.149Z" fill="#D67030"/>
<circle cx="329.081" cy="102.579" r="0.963839" transform="rotate(-145.738 329.081 102.579)" fill="#C2672D"/>
<circle cx="327.153" cy="98.7235" r="0.963839" transform="rotate(-145.738 327.153 98.7235)" fill="#C2672D"/>
<circle cx="327.153" cy="94.8682" r="0.963839" transform="rotate(-145.738 327.153 94.8682)" fill="#C2672D"/>
<circle cx="332.936" cy="103.543" r="0.963839" transform="rotate(-145.738 332.936 103.543)" fill="#C2672D"/>
<circle cx="336.791" cy="103.543" r="0.963839" transform="rotate(-145.738 336.791 103.543)" fill="#C2672D"/>
<circle cx="330.045" cy="95.8319" r="0.963839" transform="rotate(-145.738 330.045 95.8319)" fill="#C2672D"/>
<circle cx="331.009" cy="99.6873" r="0.963839" transform="rotate(-145.738 331.009 99.6873)" fill="#C2672D"/>
<circle cx="334.864" cy="100.651" r="0.963839" transform="rotate(-145.738 334.864 100.651)" fill="#C2672D"/>
<circle cx="327.153" cy="48.6039" r="0.963839" transform="rotate(-145.738 327.153 48.6039)" fill="#C2672D"/>
<circle cx="328.117" cy="42.8208" r="0.963839" transform="rotate(-145.738 328.117 42.8208)" fill="#C2672D"/>
<circle cx="329.081" cy="45.7123" r="0.963839" transform="rotate(-145.738 329.081 45.7123)" fill="#C2672D"/>
<circle cx="331.009" cy="40.8932" r="0.963839" transform="rotate(-145.738 331.009 40.8932)" fill="#C2672D"/>
<circle cx="326.189" cy="45.7123" r="0.963839" transform="rotate(-145.738 326.189 45.7123)" fill="#C2672D"/>
<circle cx="331.972" cy="43.7847" r="0.963839" transform="rotate(-145.738 331.972 43.7847)" fill="#C2672D"/>
<g filter="url(#filter2_d_47_1163)">
<path d="M370.632 105.095V70.8788C370.632 70.8788 372.928 69.8223 374.488 69.433C374.488 69.433 378.134 68.1959 380.271 68.9511C381.55 69.4033 382.363 69.782 383.162 70.8788C383.863 71.8407 384.126 73.7703 384.126 73.7703V100.276C384.126 100.276 384.623 101.503 385.09 102.203C385.828 103.311 387.499 104.613 387.499 104.613C389.288 105.722 391.837 106.059 391.837 106.059C393.151 106.15 394.861 106.165 396.174 106.059C398.087 105.905 400.993 105.095 400.993 105.095V72.3245C400.993 71.9481 401.008 71.7368 400.993 71.3607C400.881 68.5651 400.076 66.9805 398.584 64.6138C397.517 62.9214 395.21 60.7584 395.21 60.7584C393.848 59.6194 392.952 59.1246 391.355 58.3488C389.052 57.2303 387.606 56.8937 385.09 56.4212C383.415 56.1065 382.454 56.0426 380.753 55.9392C376.991 55.7106 374.832 55.8047 371.114 56.4212C367.646 56.9962 365.116 57.5303 362.44 58.8308C359.763 60.1312 356.248 62.7297 355.211 64.1318C354.174 65.534 354.247 67.1956 354.247 67.1956C354.247 78.5894 354.247 86.3001 354.247 98.3482C354.247 98.3482 354.267 101.23 355.211 102.685C356.011 103.919 356.801 104.412 358.102 105.095C359.404 105.778 362.503 105.645 365.331 105.577C367.41 105.527 370.632 105.095 370.632 105.095Z" fill="#D67030"/>
</g>
<circle cx="363.779" cy="60.1699" r="0.963839" transform="rotate(-145.738 363.779 60.1699)" fill="#C2672D"/>
<circle cx="357.032" cy="64.9892" r="0.963839" transform="rotate(-145.738 357.032 64.9892)" fill="#C2672D"/>
<circle cx="359.924" cy="62.0977" r="0.963839" transform="rotate(-145.738 359.924 62.0977)" fill="#C2672D"/>
<circle cx="356.068" cy="68.8445" r="0.963839" transform="rotate(-145.738 356.068 68.8445)" fill="#C2672D"/>
<circle cx="366.67" cy="63.0616" r="0.963839" transform="rotate(-145.738 366.67 63.0616)" fill="#C2672D"/>
<circle cx="359.924" cy="71.7361" r="0.963839" transform="rotate(-145.738 359.924 71.7361)" fill="#C2672D"/>
<circle cx="356.068" cy="73.6637" r="0.963839" transform="rotate(-145.738 356.068 73.6637)" fill="#C2672D"/>
<circle cx="359.924" cy="67.8806" r="0.963839" transform="rotate(-145.738 359.924 67.8806)" fill="#C2672D"/>
<circle cx="367.634" cy="59.2062" r="0.963839" transform="rotate(-145.738 367.634 59.2062)" fill="#C2672D"/>
<circle cx="362.815" cy="64.9892" r="0.963839" transform="rotate(-145.738 362.815 64.9892)" fill="#C2672D"/>
<circle cx="387.875" cy="102.579" r="0.963839" transform="rotate(-145.738 387.875 102.579)" fill="#C2672D"/>
<circle cx="385.947" cy="98.7235" r="0.963839" transform="rotate(-145.738 385.947 98.7235)" fill="#C2672D"/>
<circle cx="385.947" cy="94.8682" r="0.963839" transform="rotate(-145.738 385.947 94.8682)" fill="#C2672D"/>
<circle cx="391.73" cy="103.543" r="0.963839" transform="rotate(-145.738 391.73 103.543)" fill="#C2672D"/>
<circle cx="395.585" cy="103.543" r="0.963839" transform="rotate(-145.738 395.585 103.543)" fill="#C2672D"/>
<circle cx="388.839" cy="95.8319" r="0.963839" transform="rotate(-145.738 388.839 95.8319)" fill="#C2672D"/>
<circle cx="389.803" cy="99.6873" r="0.963839" transform="rotate(-145.738 389.803 99.6873)" fill="#C2672D"/>
<circle cx="393.658" cy="100.651" r="0.963839" transform="rotate(-145.738 393.658 100.651)" fill="#C2672D"/>
<defs>
<filter id="filter0_d_47_1163" x="0" y="0.0106201" width="81.252" height="48.2637" filterUnits="userSpaceOnUse" color-interpolation-filters="sRGB">
<feFlood flood-opacity="0" result="BackgroundImageFix"/>
<feColorMatrix in="SourceAlpha" type="matrix" values="0 0 0 0 0 0 0 0 0 0 0 0 0 0 0 0 0 0 127 0" result="hardAlpha"/>
<feOffset dx="3" dy="3"/>
<feGaussianBlur stdDeviation="2"/>
<feComposite in2="hardAlpha" operator="out"/>
<feColorMatrix type="matrix" values="0 0 0 0 0 0 0 0 0 0 0 0 0 0 0 0 0 0 0.25 0"/>
<feBlend mode="normal" in2="BackgroundImageFix" result="effect1_dropShadow_47_1163"/>
<feBlend mode="normal" in="SourceGraphic" in2="effect1_dropShadow_47_1163" result="shape"/>
</filter>
<filter id="filter1_d_47_1163" x="324.986" y="56.7268" width="19.8672" height="51.9344" filterUnits="userSpaceOnUse" color-interpolation-filters="sRGB">
<feFlood flood-opacity="0" result="BackgroundImageFix"/>
<feColorMatrix in="SourceAlpha" type="matrix" values="0 0 0 0 0 0 0 0 0 0 0 0 0 0 0 0 0 0 127 0" result="hardAlpha"/>
<feOffset dx="2" dy="2"/>
<feGaussianBlur stdDeviation="0.5"/>
<feComposite in2="hardAlpha" operator="out"/>
<feColorMatrix type="matrix" values="0 0 0 0 0 0 0 0 0 0 0 0 0 0 0 0 0 0 0.25 0"/>
<feBlend mode="normal" in2="BackgroundImageFix" result="effect1_dropShadow_47_1163"/>
<feBlend mode="normal" in="SourceGraphic" in2="effect1_dropShadow_47_1163" result="shape"/>
</filter>
<filter id="filter2_d_47_1163" x="354.246" y="55.8254" width="49.7539" height="53.3073" filterUnits="userSpaceOnUse" color-interpolation-filters="sRGB">
<feFlood flood-opacity="0" result="BackgroundImageFix"/>
<feColorMatrix in="SourceAlpha" type="matrix" values="0 0 0 0 0 0 0 0 0 0 0 0 0 0 0 0 0 0 127 0" result="hardAlpha"/>
<feOffset dx="2" dy="2"/>
<feGaussianBlur stdDeviation="0.5"/>
<feComposite in2="hardAlpha" operator="out"/>
<feColorMatrix type="matrix" values="0 0 0 0 0 0 0 0 0 0 0 0 0 0 0 0 0 0 0.25 0"/>
<feBlend mode="normal" in2="BackgroundImageFix" result="effect1_dropShadow_47_1163"/>
<feBlend mode="normal" in="SourceGraphic" in2="effect1_dropShadow_47_1163" result="shape"/>
</filter>
</defs>
</svg>
