<svg width="427" height="144" viewBox="0 0 427 144" fill="none" xmlns="http://www.w3.org/2000/svg">
<g filter="url(#filter0_d_47_1163)">
<g filter="url(#filter1_d_47_1163)">
<g filter="url(#filter2_d_47_1163)">
<path d="M88.5 57.2069C96 51.2391 98.0673 44.6898 92.9984 37.0054C85.0007 24.8812 56.3361 25.8488 43.9674 33.8993C27.2645 44.7709 16.3813 62.6491 17.0273 84.6336C17.6424 105.567 26.6818 125.963 46.6614 134.332C60.3558 140.069 83.7536 139.795 92 127.825C97.4589 119.902 95.7196 107.464 88.5 100.97C81.7413 94.8909 67 104.949 59.5 102.462C49.6003 99.1802 47.4612 93.1323 46.6614 83.0671C45.7511 71.6121 50.3792 63.8414 61.5 59.6935C69.5 56.7096 81.3895 62.8647 88.5 57.2069Z" fill="#D67030"/>
</g>
<g filter="url(#filter3_d_47_1163)">
<path d="M54.5 35.8224C50.5 37.3142 40 41.2929 33 42.7848C33 42.7848 30.6761 36.9361 25 34.3305C19.6813 31.8889 9 34.3305 9 34.3305C9 34.3305 17.0675 24.6182 22.5 22.8923C29.2604 20.7446 35 24.3842 35 24.3842C35 24.3842 34.0334 15.953 32 11.9514C29.9666 7.94968 22.5 6.97819 22.5 6.97819C22.5 6.97819 34.2 1.60377 38.5 3.49719C43.8086 5.83473 49.5 17.9191 49.5 17.9191C49.5 17.9191 53.6936 5.43555 58 3.49719C63.0316 1.23239 74.5 3.49713 74.5 3.49713C74.5 3.49713 64.1095 7.09605 64.5 11.9514C64.8905 16.8067 67 21.4004 70 27.8654C70 27.8654 58.5 34.3305 54.5 35.8224Z" fill="#DDA15E"/>
<ellipse cx="7.5" cy="35.3252" rx="3.5" ry="3.48119" fill="#9BA646"/>
<ellipse cx="19.5" cy="7.47569" rx="3.5" ry="3.48119" fill="#9BA646"/>
<ellipse cx="76.5" cy="4.49181" rx="3.5" ry="3.48119" fill="#9BA646"/>
</g>
<ellipse cx="35.75" cy="16.6921" rx="0.75" ry="0.745968" fill="#CB9253"/>
<ellipse cx="34.75" cy="12.7137" rx="0.75" ry="0.745968" fill="#CB9253"/>
<ellipse cx="32.75" cy="9.72985" rx="0.75" ry="0.745968" fill="#CB9253"/>
<ellipse cx="29.75" cy="7.7406" rx="0.75" ry="0.745968" fill="#CB9253"/>
<ellipse cx="36.75" cy="20.6707" rx="0.75" ry="0.745968" fill="#CB9253"/>
<ellipse cx="38.75" cy="17.6868" rx="0.75" ry="0.745968" fill="#CB9253"/>
<ellipse cx="37.75" cy="13.7084" rx="0.75" ry="0.745968" fill="#CB9253"/>
<ellipse cx="36.75" cy="9.72985" rx="0.75" ry="0.745968" fill="#CB9253"/>
<ellipse cx="33.75" cy="6.74597" rx="0.75" ry="0.745968" fill="#CB9253"/>
<ellipse cx="33" cy="46.7633" rx="1" ry="0.994624" fill="#C2672D"/>
<ellipse cx="35" cy="51.7364" rx="1" ry="0.994624" fill="#C2672D"/>
<ellipse cx="39" cy="45.7687" rx="1" ry="0.994624" fill="#C2672D"/>
<ellipse cx="24" cy="89.5322" rx="1" ry="0.994624" fill="#C2672D"/>
<ellipse cx="32" cy="56.7096" rx="1" ry="0.994624" fill="#C2672D"/>
<ellipse cx="30" cy="62.6774" rx="1" ry="0.994624" fill="#C2672D"/>
<ellipse cx="27" cy="68.645" rx="1" ry="0.994624" fill="#C2672D"/>
<ellipse cx="25" cy="75.6074" rx="1" ry="0.994624" fill="#C2672D"/>
<ellipse cx="25" cy="82.5698" rx="1" ry="0.994624" fill="#C2672D"/>
<ellipse cx="29" cy="52.7311" rx="1" ry="0.994624" fill="#C2672D"/>
<ellipse cx="26" cy="58.6988" rx="1" ry="0.994624" fill="#C2672D"/>
<ellipse cx="23" cy="64.6666" rx="1" ry="0.994624" fill="#C2672D"/>
<ellipse cx="21" cy="71.6289" rx="1" ry="0.994624" fill="#C2672D"/>
<ellipse cx="20" cy="78.5913" rx="1" ry="0.994624" fill="#C2672D"/>
<ellipse cx="20" cy="85.5537" rx="1" ry="0.994624" fill="#C2672D"/>
</g>
<g filter="url(#filter4_d_47_1163)">
<path d="M113.205 74.5031C115.155 72.4993 116.909 71.5031 119.705 71.5031C120.354 71.5031 120.948 71.5568 121.5 71.6644V58.0508C121.5 58.0508 119.671 57.9645 118.5 58C112.629 58.1779 108.936 58.8158 104 62C100.519 64.2454 98.5001 66 96.5001 69.5C94.5 73 92.6955 79.1111 93.0001 85.5C93.2504 90.7516 94.5 94.0031 94.5 94.0031C94.5 94.0031 96.8229 100.099 99.5 103C101.826 105.521 103.514 106.811 106.5 108.5C109.027 109.929 115 110.5 115 110.5C116 110.685 125 110.881 128 110C131 109.119 133.926 107.948 137 105.5C140.483 102.726 142.094 100.524 144 96.5C146.131 92.001 146.5 84 146.5 84C146.409 78.9807 145.866 76.0456 143.5 71.5C141.624 67.8949 139.647 65.5717 136.5 63C134.268 61.1757 130 59.5 130 59.5C130 59.5 125.5 58 122.334 58.0508V71.8768C123.765 72.333 124.945 73.2074 126.205 74.5031C128.88 77.2527 128.658 80.1671 128.705 84.0031C128.755 88.0282 129.03 91.1352 126.205 94.0031C124.243 95.9949 122.501 97.0031 119.705 97.0031C116.909 97.0031 115.167 95.9949 113.205 94.0031C110.38 91.1352 110.656 88.0282 110.705 84.0031C110.753 80.1671 110.53 77.2527 113.205 74.5031Z" fill="#D67030"/>
<circle cx="107.389" cy="63.3895" r="1" transform="rotate(-145.738 107.389 63.3895)" fill="#C2672D"/>
<circle cx="99.3893" cy="73.3972" r="1" transform="rotate(-145.738 99.3893 73.3972)" fill="#C2672D"/>
<circle cx="102.389" cy="67.3895" r="1" transform="rotate(-145.738 102.389 67.3895)" fill="#C2672D"/>
<circle cx="97.3893" cy="79.3895" r="1" transform="rotate(-145.738 97.3893 79.3895)" fill="#C2672D"/>
<circle cx="103.389" cy="77.3895" r="1" transform="rotate(-145.738 103.389 77.3895)" fill="#C2672D"/>
<circle cx="100.389" cy="84.3895" r="1" transform="rotate(-145.738 100.389 84.3895)" fill="#C2672D"/>
<circle cx="106.389" cy="71.3895" r="1" transform="rotate(-145.738 106.389 71.3895)" fill="#C2672D"/>
<circle cx="112.389" cy="61.3895" r="1" transform="rotate(-145.738 112.389 61.3895)" fill="#C2672D"/>
<circle cx="111.389" cy="66.3895" r="1" transform="rotate(-145.738 111.389 66.3895)" fill="#C2672D"/>
</g>
<g filter="url(#filter5_d_47_1163)">
<path d="M175.5 72C174.561 72.3314 173.5 73 173.5 73V109C173.5 109 171.094 109.775 169.5 110C167.373 110.3 166.128 110.289 164 110C163.013 109.866 162.455 109.781 161.5 109.5C160.491 109.203 159.863 109.1 159 108.5C158.32 108.027 157.973 107.68 157.5 107C157.027 106.32 156.5 104.5 156.5 102.5C156.5 100.5 156.5 98 156.5 98V70.5V68.5C156.5 68.5 157 66.5001 159.5 64.5C162 62.5 163.546 61.5886 166.5 60.5C169.454 59.4115 171.017 59.0398 174 58.5C175.359 58.2542 176.124 58.1097 177.5 58C179.252 57.8605 181.5 58 182 58C182.5 58 185.092 58.0427 187 58.5C189.002 58.9798 190.673 59.8269 191.92 60.4596L192 60.5C193.256 61.1367 195 62.5 195 62.5H195.5C195.5 62.5 197.244 61.1367 198.5 60.5C199.756 59.8634 201.466 59.0329 203.5 58.5C204.463 58.2478 205.015 58.1437 206 58C208.705 57.6055 213 58 213 58C213 58 215.452 58.212 217 58.5C217 58.5 220.824 59.043 224 61C227.176 62.957 228.956 64.604 230.5 68.0001C231.011 69.1243 231.5 71.0001 231.5 71.0001C231.5 71.0001 232 73.0001 232 74.5001L232 109C232 109 228.678 109.849 226.5 110C225.136 110.095 223.778 110.068 223 110C222.222 109.932 215 109.5 215 104.5C215 99.5 215 103.476 215 102.819V77C215 77 215.091 75.0303 214.5 74.0001C213.909 72.9698 213.145 72.5014 212 72C211.262 71.6772 210.799 71.5969 210 71.5C209.225 71.4061 208.778 71.4324 208 71.5C207.008 71.5863 205.5 72.0001 205.5 72.0001C205.5 72.0001 204.163 72.4318 203.5 73C203.29 73.1797 203 73.5 203 73.5V75V109C203 109 201.482 109.337 200.5 109.5C198.564 109.821 195.5 110 195.5 110C192.932 109.976 191.259 110.222 189 109C188.381 108.665 188.025 108.469 187.5 108C186.772 107.349 186.402 106.89 186 106C185.668 105.267 185.583 104.801 185.5 104V80.0001V79.5C185.5 78.3285 185.5 77.5001 185.5 76.5C185.5 75.5 185.044 74.0594 184 73C182.956 71.9406 181.347 71.6421 179.5 71.5C178.916 71.4551 178.584 71.4573 178 71.5C177.007 71.5727 176.439 71.6687 175.5 72Z" fill="#D67030"/>
<circle cx="166.389" cy="63.3895" r="1" transform="rotate(-145.738 166.389 63.3895)" fill="#C2672D"/>
<circle cx="159.389" cy="68.3895" r="1" transform="rotate(-145.738 159.389 68.3895)" fill="#C2672D"/>
<circle cx="162.389" cy="65.3895" r="1" transform="rotate(-145.738 162.389 65.3895)" fill="#C2672D"/>
<circle cx="158.389" cy="72.3895" r="1" transform="rotate(-145.738 158.389 72.3895)" fill="#C2672D"/>
<circle cx="169.389" cy="66.3895" r="1" transform="rotate(-145.738 169.389 66.3895)" fill="#C2672D"/>
<circle cx="162.389" cy="75.3895" r="1" transform="rotate(-145.738 162.389 75.3895)" fill="#C2672D"/>
<circle cx="158.389" cy="77.3895" r="1" transform="rotate(-145.738 158.389 77.3895)" fill="#C2672D"/>
<circle cx="162.389" cy="71.3895" r="1" transform="rotate(-145.738 162.389 71.3895)" fill="#C2672D"/>
<circle cx="170.389" cy="62.3895" r="1" transform="rotate(-145.738 170.389 62.3895)" fill="#C2672D"/>
<circle cx="165.389" cy="68.3895" r="1" transform="rotate(-145.738 165.389 68.3895)" fill="#C2672D"/>
<circle cx="189.389" cy="106.389" r="1" transform="rotate(-145.738 189.389 106.389)" fill="#C2672D"/>
<circle cx="187.389" cy="102.389" r="1" transform="rotate(-145.738 187.389 102.389)" fill="#C2672D"/>
<circle cx="187.389" cy="98.3895" r="1" transform="rotate(-145.738 187.389 98.3895)" fill="#C2672D"/>
<circle cx="193.389" cy="107.389" r="1" transform="rotate(-145.738 193.389 107.389)" fill="#C2672D"/>
<circle cx="197.389" cy="107.389" r="1" transform="rotate(-145.738 197.389 107.389)" fill="#C2672D"/>
<circle cx="190.389" cy="99.3895" r="1" transform="rotate(-145.738 190.389 99.3895)" fill="#C2672D"/>
<circle cx="191.389" cy="103.389" r="1" transform="rotate(-145.738 191.389 103.389)" fill="#C2672D"/>
<circle cx="195.389" cy="104.389" r="1" transform="rotate(-145.738 195.389 104.389)" fill="#C2672D"/>
</g>
<g filter="url(#filter6_d_47_1163)">
<path d="M247.5 101.343V60L253 59.5C253 59.5 256.708 59.0119 259 59.5C260.632 59.8476 261.5 60 263 61C264.5 62.0001 265 63 265 67.5V108.5C265 108.5 264.092 108.824 263.5 109C261.271 109.664 261.122 109.947 258.5 110C256.538 110.039 254.319 110.237 252.5 109.5C251.195 108.972 250.422 108.565 249.5 107.5C248.643 106.51 248.395 105.749 248 104.5C247.623 103.31 247.5 101.343 247.5 101.343Z" fill="#D67030"/>
<circle cx="256" cy="46" r="10" fill="#D67030"/>
<circle cx="252.389" cy="106.389" r="1" transform="rotate(-145.738 252.389 106.389)" fill="#C2672D"/>
<circle cx="250.389" cy="102.389" r="1" transform="rotate(-145.738 250.389 102.389)" fill="#C2672D"/>
<circle cx="250.389" cy="98.3895" r="1" transform="rotate(-145.738 250.389 98.3895)" fill="#C2672D"/>
<circle cx="256.389" cy="107.389" r="1" transform="rotate(-145.738 256.389 107.389)" fill="#C2672D"/>
<circle cx="260.389" cy="107.389" r="1" transform="rotate(-145.738 260.389 107.389)" fill="#C2672D"/>
<circle cx="253.389" cy="99.3895" r="1" transform="rotate(-145.738 253.389 99.3895)" fill="#C2672D"/>
<circle cx="254.389" cy="103.389" r="1" transform="rotate(-145.738 254.389 103.389)" fill="#C2672D"/>
<circle cx="258.389" cy="104.389" r="1" transform="rotate(-145.738 258.389 104.389)" fill="#C2672D"/>
<circle cx="250.389" cy="51.3895" r="1" transform="rotate(-145.738 250.389 51.3895)" fill="#C2672D"/>
<circle cx="248.389" cy="47.3895" r="1" transform="rotate(-145.738 248.389 47.3895)" fill="#C2672D"/>
<circle cx="248.389" cy="43.3895" r="1" transform="rotate(-145.738 248.389 43.3895)" fill="#C2672D"/>
<circle cx="254.389" cy="52.3895" r="1" transform="rotate(-145.738 254.389 52.3895)" fill="#C2672D"/>
<circle cx="258.389" cy="52.3895" r="1" transform="rotate(-145.738 258.389 52.3895)" fill="#C2672D"/>
<circle cx="251.389" cy="44.3895" r="1" transform="rotate(-145.738 251.389 44.3895)" fill="#C2672D"/>
<circle cx="252.389" cy="48.3895" r="1" transform="rotate(-145.738 252.389 48.3895)" fill="#C2672D"/>
<circle cx="256.389" cy="49.3895" r="1" transform="rotate(-145.738 256.389 49.3895)" fill="#C2672D"/>
</g>
<g filter="url(#filter7_d_47_1163)">
<path d="M310 95V72.5C310 72 304.5 71.5099 304.5 71.5099V58.2351C304.593 58.1534 308.834 58.788 310 59V42.5C312.037 41.2033 316 41 316 41C316 41 320 40.5 322 41.5C322 41.5 324 42 325 43.5C325 43.5 326 44.5 326.5 46L327 47.5C327 47.5 327 78.5 327 98C327 98 327 101.5 325 104C323 106.5 320.7 107.305 317.5 108.5C314.701 109.545 310 110.5 310 110.5C306.51 110.964 304.009 110.781 300.5 110.5C300.5 110.5 295.16 109.783 292 108.5C288.835 107.215 287.008 106.318 284.5 104C282.664 102.303 281.833 101.116 280.5 99C279.337 97.1527 278.706 96.0658 278 94C277.418 92.2965 277.194 91.2898 277 89.5C276.805 87.7102 276.8 83.3671 277 81C277.199 78.6329 278.5 73.5 278.5 73.5C278.5 73.5 279.676 69.6657 281 67.5C282.658 64.788 282.992 64.4532 285.5 62.5C286.611 61.6347 288.5 60.5 288.5 60.5C292.5 58 298 58 298 58C299.807 58 301.986 57.98 304 58.1797V71.5099C302.179 71.58 300.5 72 300.5 72C297.76 72.9608 296.451 74.4863 295 77C293.548 79.5137 293.5 84.5 294 87C294.499 89.5 295.492 94.0342 299 96C302.507 97.9658 306 97 306 97C307.7 96.6 310 95 310 95Z" fill="#D67030"/>
<circle cx="290.389" cy="62.3895" r="1" transform="rotate(-145.738 290.389 62.3895)" fill="#C2672D"/>
<circle cx="282.389" cy="72.3972" r="1" transform="rotate(-145.738 282.389 72.3972)" fill="#C2672D"/>
<circle cx="285.389" cy="66.3895" r="1" transform="rotate(-145.738 285.389 66.3895)" fill="#C2672D"/>
<circle cx="280.389" cy="78.3895" r="1" transform="rotate(-145.738 280.389 78.3895)" fill="#C2672D"/>
<circle cx="286.389" cy="76.3895" r="1" transform="rotate(-145.738 286.389 76.3895)" fill="#C2672D"/>
<circle cx="283.389" cy="83.3895" r="1" transform="rotate(-145.738 283.389 83.3895)" fill="#C2672D"/>
<circle cx="289.389" cy="70.3895" r="1" transform="rotate(-145.738 289.389 70.3895)" fill="#C2672D"/>
<circle cx="295.389" cy="60.3895" r="1" transform="rotate(-145.738 295.389 60.3895)" fill="#C2672D"/>
<circle cx="294.389" cy="65.3895" r="1" transform="rotate(-145.738 294.389 65.3895)" fill="#C2672D"/>
</g>
<g filter="url(#filter8_d_47_1163)">
<g filter="url(#filter9_d_47_1163)">
<path d="M340.141 100.877V59.5341L345.641 59.0341C345.641 59.0341 349.349 58.5459 351.641 59.0341C353.273 59.3817 354.141 59.5341 355.641 60.5341C357.141 61.5341 357.641 62.5341 357.641 67.0341V108.034C357.641 108.034 356.733 108.358 356.141 108.534C353.912 109.198 353.763 109.481 351.141 109.534C349.179 109.573 346.96 109.771 345.141 109.034C343.836 108.506 343.063 108.099 342.141 107.034C341.284 106.044 341.037 105.283 340.641 104.034C340.264 102.844 340.141 100.877 340.141 100.877Z" fill="#D67030"/>
</g>
<path d="M356.141 33.3172L341.141 43.8172C341.141 43.8172 340.023 44.9187 339.641 45.8172C338.873 47.6232 338.703 49.0934 339.641 50.8172C340.501 52.3986 341.969 53.1497 343.641 53.8172C344.744 54.2576 346.641 54.3172 346.641 54.3172C356.141 49.3173 356.141 49.3172 362.141 46.3173L362.141 46.3172C362.141 46.3172 364.435 44.4734 365.141 42.8172C366.059 40.6615 366.283 38.8632 365.141 36.8172C364.189 35.1122 362.96 34.0274 361.141 33.3171C359.313 32.6034 356.141 33.3172 356.141 33.3172Z" fill="#D67030"/>
<circle cx="344.389" cy="106.389" r="1" transform="rotate(-145.738 344.389 106.389)" fill="#C2672D"/>
<circle cx="342.389" cy="102.389" r="1" transform="rotate(-145.738 342.389 102.389)" fill="#C2672D"/>
<circle cx="342.389" cy="98.3895" r="1" transform="rotate(-145.738 342.389 98.3895)" fill="#C2672D"/>
<circle cx="348.389" cy="107.389" r="1" transform="rotate(-145.738 348.389 107.389)" fill="#C2672D"/>
<circle cx="352.389" cy="107.389" r="1" transform="rotate(-145.738 352.389 107.389)" fill="#C2672D"/>
<circle cx="345.389" cy="99.3895" r="1" transform="rotate(-145.738 345.389 99.3895)" fill="#C2672D"/>
<circle cx="346.389" cy="103.389" r="1" transform="rotate(-145.738 346.389 103.389)" fill="#C2672D"/>
<circle cx="350.389" cy="104.389" r="1" transform="rotate(-145.738 350.389 104.389)" fill="#C2672D"/>
<circle cx="342.389" cy="50.3895" r="1" transform="rotate(-145.738 342.389 50.3895)" fill="#C2672D"/>
<circle cx="343.389" cy="44.3895" r="1" transform="rotate(-145.738 343.389 44.3895)" fill="#C2672D"/>
<circle cx="344.389" cy="47.3895" r="1" transform="rotate(-145.738 344.389 47.3895)" fill="#C2672D"/>
<circle cx="346.389" cy="42.3895" r="1" transform="rotate(-145.738 346.389 42.3895)" fill="#C2672D"/>
<circle cx="341.389" cy="47.3895" r="1" transform="rotate(-145.738 341.389 47.3895)" fill="#C2672D"/>
<circle cx="347.389" cy="45.3895" r="1" transform="rotate(-145.738 347.389 45.3895)" fill="#C2672D"/>
</g>
<g filter="url(#filter10_d_47_1163)">
<g filter="url(#filter11_d_47_1163)">
<path d="M387.5 109V73.5C387.5 73.5 389.881 72.4039 391.5 72C391.5 72 395.283 70.7165 397.5 71.5C398.828 71.9692 399.671 72.3621 400.5 73.5C401.228 74.4981 401.5 76.5 401.5 76.5V104C401.5 104 402.016 105.273 402.5 106C403.266 107.149 405 108.5 405 108.5C406.855 109.651 409.5 110 409.5 110C410.864 110.095 412.638 110.11 414 110C415.985 109.84 419 109 419 109V75C419 74.6095 419.016 74.3902 419 74C418.884 71.0996 418.048 69.4555 416.5 67C415.393 65.2442 413 63 413 63C411.587 61.8183 410.657 61.3049 409 60.5C406.611 59.3395 405.11 58.9903 402.5 58.5C400.762 58.1736 399.765 58.1073 398 58C394.097 57.7628 391.858 57.8605 388 58.5C384.402 59.0967 381.777 59.6507 379 61C376.223 62.3493 372.576 65.0453 371.5 66.5C370.424 67.9547 370.5 69.6787 370.5 69.6787C370.5 81.5 370.5 89.5 370.5 102C370.5 102 370.52 104.99 371.5 106.5C372.33 107.779 373.149 108.292 374.5 109C375.851 109.708 379.066 109.571 382 109.5C384.156 109.448 387.5 109 387.5 109Z" fill="#D67030"/>
</g>
<circle cx="380.389" cy="62.3895" r="1" transform="rotate(-145.738 380.389 62.3895)" fill="#C2672D"/>
<circle cx="373.389" cy="67.3895" r="1" transform="rotate(-145.738 373.389 67.3895)" fill="#C2672D"/>
<circle cx="376.389" cy="64.3895" r="1" transform="rotate(-145.738 376.389 64.3895)" fill="#C2672D"/>
<circle cx="372.389" cy="71.3895" r="1" transform="rotate(-145.738 372.389 71.3895)" fill="#C2672D"/>
<circle cx="383.389" cy="65.3895" r="1" transform="rotate(-145.738 383.389 65.3895)" fill="#C2672D"/>
<circle cx="376.389" cy="74.3895" r="1" transform="rotate(-145.738 376.389 74.3895)" fill="#C2672D"/>
<circle cx="372.389" cy="76.3895" r="1" transform="rotate(-145.738 372.389 76.3895)" fill="#C2672D"/>
<circle cx="376.389" cy="70.3895" r="1" transform="rotate(-145.738 376.389 70.3895)" fill="#C2672D"/>
<circle cx="384.389" cy="61.3895" r="1" transform="rotate(-145.738 384.389 61.3895)" fill="#C2672D"/>
<circle cx="379.389" cy="67.3895" r="1" transform="rotate(-145.738 379.389 67.3895)" fill="#C2672D"/>
<circle cx="405.389" cy="106.389" r="1" transform="rotate(-145.738 405.389 106.389)" fill="#C2672D"/>
<circle cx="403.389" cy="102.389" r="1" transform="rotate(-145.738 403.389 102.389)" fill="#C2672D"/>
<circle cx="403.389" cy="98.3895" r="1" transform="rotate(-145.738 403.389 98.3895)" fill="#C2672D"/>
<circle cx="409.389" cy="107.389" r="1" transform="rotate(-145.738 409.389 107.389)" fill="#C2672D"/>
<circle cx="413.389" cy="107.389" r="1" transform="rotate(-145.738 413.389 107.389)" fill="#C2672D"/>
<circle cx="406.389" cy="99.3895" r="1" transform="rotate(-145.738 406.389 99.3895)" fill="#C2672D"/>
<circle cx="407.389" cy="103.389" r="1" transform="rotate(-145.738 407.389 103.389)" fill="#C2672D"/>
<circle cx="411.389" cy="104.389" r="1" transform="rotate(-145.738 411.389 104.389)" fill="#C2672D"/>
</g>
</g>
<defs>
<filter id="filter0_d_47_1163" x="4" y="1.01062" width="423.007" height="144.957" filterUnits="userSpaceOnUse" color-interpolation-filters="sRGB">
<feFlood flood-opacity="0" result="BackgroundImageFix"/>
<feColorMatrix in="SourceAlpha" type="matrix" values="0 0 0 0 0 0 0 0 0 0 0 0 0 0 0 0 0 0 127 0" result="hardAlpha"/>
<feOffset dx="4" dy="4"/>
<feGaussianBlur stdDeviation="2"/>
<feComposite in2="hardAlpha" operator="out"/>
<feColorMatrix type="matrix" values="0 0 0 0 0 0 0 0 0 0 0 0 0 0 0 0 0 0 0.25 0"/>
<feBlend mode="normal" in2="BackgroundImageFix" result="effect1_dropShadow_47_1163"/>
<feBlend mode="normal" in="SourceGraphic" in2="effect1_dropShadow_47_1163" result="shape"/>
</filter>
<filter id="filter1_d_47_1163" x="0" y="1.01062" width="99.7803" height="144.957" filterUnits="userSpaceOnUse" color-interpolation-filters="sRGB">
<feFlood flood-opacity="0" result="BackgroundImageFix"/>
<feColorMatrix in="SourceAlpha" type="matrix" values="0 0 0 0 0 0 0 0 0 0 0 0 0 0 0 0 0 0 127 0" result="hardAlpha"/>
<feOffset dy="4"/>
<feGaussianBlur stdDeviation="2"/>
<feComposite in2="hardAlpha" operator="out"/>
<feColorMatrix type="matrix" values="0 0 0 0 0 0 0 0 0 0 0 0 0 0 0 0 0 0 0.25 0"/>
<feBlend mode="normal" in2="BackgroundImageFix" result="effect1_dropShadow_47_1163"/>
<feBlend mode="normal" in="SourceGraphic" in2="effect1_dropShadow_47_1163" result="shape"/>
</filter>
<filter id="filter2_d_47_1163" x="17" y="27.8655" width="81.7803" height="113.102" filterUnits="userSpaceOnUse" color-interpolation-filters="sRGB">
<feFlood flood-opacity="0" result="BackgroundImageFix"/>
<feColorMatrix in="SourceAlpha" type="matrix" values="0 0 0 0 0 0 0 0 0 0 0 0 0 0 0 0 0 0 127 0" result="hardAlpha"/>
<feOffset dx="3" dy="3"/>
<feComposite in2="hardAlpha" operator="out"/>
<feColorMatrix type="matrix" values="0 0 0 0 0.584167 0 0 0 0 0.330125 0 0 0 0 0.104663 0 0 0 1 0"/>
<feBlend mode="normal" in2="BackgroundImageFix" result="effect1_dropShadow_47_1163"/>
<feBlend mode="normal" in="SourceGraphic" in2="effect1_dropShadow_47_1163" result="shape"/>
</filter>
<filter id="filter3_d_47_1163" x="3" y="0.0106201" width="84" height="49.7742" filterUnits="userSpaceOnUse" color-interpolation-filters="sRGB">
<feFlood flood-opacity="0" result="BackgroundImageFix"/>
<feColorMatrix in="SourceAlpha" type="matrix" values="0 0 0 0 0 0 0 0 0 0 0 0 0 0 0 0 0 0 127 0" result="hardAlpha"/>
<feOffset dx="3" dy="3"/>
<feGaussianBlur stdDeviation="2"/>
<feComposite in2="hardAlpha" operator="out"/>
<feColorMatrix type="matrix" values="0 0 0 0 0 0 0 0 0 0 0 0 0 0 0 0 0 0 0.25 0"/>
<feBlend mode="normal" in2="BackgroundImageFix" result="effect1_dropShadow_47_1163"/>
<feBlend mode="normal" in="SourceGraphic" in2="effect1_dropShadow_47_1163" result="shape"/>
</filter>
<filter id="filter4_d_47_1163" x="92.9663" y="57.9915" width="56.5337" height="55.6671" filterUnits="userSpaceOnUse" color-interpolation-filters="sRGB">
<feFlood flood-opacity="0" result="BackgroundImageFix"/>
<feColorMatrix in="SourceAlpha" type="matrix" values="0 0 0 0 0 0 0 0 0 0 0 0 0 0 0 0 0 0 127 0" result="hardAlpha"/>
<feOffset dx="3" dy="3"/>
<feComposite in2="hardAlpha" operator="out"/>
<feColorMatrix type="matrix" values="0 0 0 0 0.584314 0 0 0 0 0.329412 0 0 0 0 0.105882 0 0 0 1 0"/>
<feBlend mode="normal" in2="BackgroundImageFix" result="effect1_dropShadow_47_1163"/>
<feBlend mode="normal" in="SourceGraphic" in2="effect1_dropShadow_47_1163" result="shape"/>
</filter>
<filter id="filter5_d_47_1163" x="156.5" y="57.8247" width="78.5" height="55.3962" filterUnits="userSpaceOnUse" color-interpolation-filters="sRGB">
<feFlood flood-opacity="0" result="BackgroundImageFix"/>
<feColorMatrix in="SourceAlpha" type="matrix" values="0 0 0 0 0 0 0 0 0 0 0 0 0 0 0 0 0 0 127 0" result="hardAlpha"/>
<feOffset dx="3" dy="3"/>
<feComposite in2="hardAlpha" operator="out"/>
<feColorMatrix type="matrix" values="0 0 0 0 0.584314 0 0 0 0 0.329412 0 0 0 0 0.105882 0 0 0 1 0"/>
<feBlend mode="normal" in2="BackgroundImageFix" result="effect1_dropShadow_47_1163"/>
<feBlend mode="normal" in="SourceGraphic" in2="effect1_dropShadow_47_1163" result="shape"/>
</filter>
<filter id="filter6_d_47_1163" x="246" y="36" width="23" height="77.0533" filterUnits="userSpaceOnUse" color-interpolation-filters="sRGB">
<feFlood flood-opacity="0" result="BackgroundImageFix"/>
<feColorMatrix in="SourceAlpha" type="matrix" values="0 0 0 0 0 0 0 0 0 0 0 0 0 0 0 0 0 0 127 0" result="hardAlpha"/>
<feOffset dx="3" dy="3"/>
<feComposite in2="hardAlpha" operator="out"/>
<feColorMatrix type="matrix" values="0 0 0 0 0.584314 0 0 0 0 0.329412 0 0 0 0 0.105882 0 0 0 1 0"/>
<feBlend mode="normal" in2="BackgroundImageFix" result="effect1_dropShadow_47_1163"/>
<feBlend mode="normal" in="SourceGraphic" in2="effect1_dropShadow_47_1163" result="shape"/>
</filter>
<filter id="filter7_d_47_1163" x="276.852" y="40.875" width="53.1479" height="72.9087" filterUnits="userSpaceOnUse" color-interpolation-filters="sRGB">
<feFlood flood-opacity="0" result="BackgroundImageFix"/>
<feColorMatrix in="SourceAlpha" type="matrix" values="0 0 0 0 0 0 0 0 0 0 0 0 0 0 0 0 0 0 127 0" result="hardAlpha"/>
<feOffset dx="3" dy="3"/>
<feComposite in2="hardAlpha" operator="out"/>
<feColorMatrix type="matrix" values="0 0 0 0 0.584314 0 0 0 0 0.329412 0 0 0 0 0.105882 0 0 0 1 0"/>
<feBlend mode="normal" in2="BackgroundImageFix" result="effect1_dropShadow_47_1163"/>
<feBlend mode="normal" in="SourceGraphic" in2="effect1_dropShadow_47_1163" result="shape"/>
</filter>
<filter id="filter8_d_47_1163" x="339" y="32.9999" width="29.916" height="79.5875" filterUnits="userSpaceOnUse" color-interpolation-filters="sRGB">
<feFlood flood-opacity="0" result="BackgroundImageFix"/>
<feColorMatrix in="SourceAlpha" type="matrix" values="0 0 0 0 0 0 0 0 0 0 0 0 0 0 0 0 0 0 127 0" result="hardAlpha"/>
<feOffset dx="3" dy="3"/>
<feComposite in2="hardAlpha" operator="out"/>
<feColorMatrix type="matrix" values="0 0 0 0 0.584314 0 0 0 0 0.329412 0 0 0 0 0.105882 0 0 0 1 0"/>
<feBlend mode="normal" in2="BackgroundImageFix" result="effect1_dropShadow_47_1163"/>
<feBlend mode="normal" in="SourceGraphic" in2="effect1_dropShadow_47_1163" result="shape"/>
</filter>
<filter id="filter9_d_47_1163" x="340.141" y="58.8171" width="20.5" height="53.7703" filterUnits="userSpaceOnUse" color-interpolation-filters="sRGB">
<feFlood flood-opacity="0" result="BackgroundImageFix"/>
<feColorMatrix in="SourceAlpha" type="matrix" values="0 0 0 0 0 0 0 0 0 0 0 0 0 0 0 0 0 0 127 0" result="hardAlpha"/>
<feOffset dx="2" dy="2"/>
<feGaussianBlur stdDeviation="0.5"/>
<feComposite in2="hardAlpha" operator="out"/>
<feColorMatrix type="matrix" values="0 0 0 0 0 0 0 0 0 0 0 0 0 0 0 0 0 0 0.25 0"/>
<feBlend mode="normal" in2="BackgroundImageFix" result="effect1_dropShadow_47_1163"/>
<feBlend mode="normal" in="SourceGraphic" in2="effect1_dropShadow_47_1163" result="shape"/>
</filter>
<filter id="filter10_d_47_1163" x="370.499" y="57.882" width="51.5083" height="55.1947" filterUnits="userSpaceOnUse" color-interpolation-filters="sRGB">
<feFlood flood-opacity="0" result="BackgroundImageFix"/>
<feColorMatrix in="SourceAlpha" type="matrix" values="0 0 0 0 0 0 0 0 0 0 0 0 0 0 0 0 0 0 127 0" result="hardAlpha"/>
<feOffset dx="3" dy="3"/>
<feComposite in2="hardAlpha" operator="out"/>
<feColorMatrix type="matrix" values="0 0 0 0 0.584314 0 0 0 0 0.329412 0 0 0 0 0.105882 0 0 0 1 0"/>
<feBlend mode="normal" in2="BackgroundImageFix" result="effect1_dropShadow_47_1163"/>
<feBlend mode="normal" in="SourceGraphic" in2="effect1_dropShadow_47_1163" result="shape"/>
</filter>
<filter id="filter11_d_47_1163" x="370.499" y="57.882" width="51.5083" height="55.1947" filterUnits="userSpaceOnUse" color-interpolation-filters="sRGB">
<feFlood flood-opacity="0" result="BackgroundImageFix"/>
<feColorMatrix in="SourceAlpha" type="matrix" values="0 0 0 0 0 0 0 0 0 0 0 0 0 0 0 0 0 0 127 0" result="hardAlpha"/>
<feOffset dx="2" dy="2"/>
<feGaussianBlur stdDeviation="0.5"/>
<feComposite in2="hardAlpha" operator="out"/>
<feColorMatrix type="matrix" values="0 0 0 0 0 0 0 0 0 0 0 0 0 0 0 0 0 0 0.25 0"/>
<feBlend mode="normal" in2="BackgroundImageFix" result="effect1_dropShadow_47_1163"/>
<feBlend mode="normal" in="SourceGraphic" in2="effect1_dropShadow_47_1163" result="shape"/>
</filter>
</defs>
</svg>
