<svg width="1460" height="1027" viewBox="0 0 1460 1027" fill="none" xmlns="http://www.w3.org/2000/svg">
<path d="M1460 0H0V1024H1460V0Z" fill="#FEFAE0"/>
<path opacity="0.7" d="M270.912 3H118.396V122.312H270.912V3Z" fill="#FEFAE0" fill-opacity="0.5"/>
<path d="M118.396 3H0V122.312H118.396V3Z" fill="#DDA15E" fill-opacity="0.5"/>
<path opacity="0.7" d="M575.941 3H423.425V122.312H575.941V3Z" fill="#FEFAE0" fill-opacity="0.5"/>
<path d="M423.427 3H270.912V122.312H423.427V3Z" fill="#DDA15E" fill-opacity="0.5"/>
<path opacity="0.7" d="M880.972 3H728.457V122.312H880.972V3Z" fill="#FEFAE0" fill-opacity="0.5"/>
<path d="M728.456 3H575.941V122.312H728.456V3Z" fill="#DDA15E" fill-opacity="0.5"/>
<path opacity="0.7" d="M1186 3H1033.49V122.312H1186V3Z" fill="#FEFAE0" fill-opacity="0.5"/>
<path d="M1033.49 3H880.97V122.312H1033.49V3Z" fill="#DDA15E" fill-opacity="0.5"/>
<path opacity="0.7" d="M118.396 122.314H0V282.769H118.396V122.314Z" fill="#FEFAE0" fill-opacity="0.5"/>
<path opacity="0.7" d="M423.427 122.314H270.912V282.769H423.427V122.314Z" fill="#FEFAE0" fill-opacity="0.5"/>
<path d="M270.912 122.314H118.396V282.769H270.912V122.314Z" fill="#DDA15E" fill-opacity="0.5"/>
<path opacity="0.7" d="M728.456 122.314H575.941V282.769H728.456V122.314Z" fill="#FEFAE0" fill-opacity="0.5"/>
<path d="M575.941 122.314H423.425V282.769H575.941V122.314Z" fill="#DDA15E" fill-opacity="0.5"/>
<path opacity="0.7" d="M1033.49 122.314H880.97V282.769H1033.49V122.314Z" fill="#FEFAE0" fill-opacity="0.5"/>
<path d="M880.972 122.314H728.457V282.769H880.972V122.314Z" fill="#DDA15E" fill-opacity="0.5"/>
<path d="M1186 122.314H1033.49V282.769H1186V122.314Z" fill="#DDA15E" fill-opacity="0.5"/>
<path opacity="0.7" d="M270.912 282.769H118.396V443.224H270.912V282.769Z" fill="#FEFAE0" fill-opacity="0.5"/>
<path d="M118.396 282.769H0V443.224H118.396V282.769Z" fill="#DDA15E" fill-opacity="0.5"/>
<path opacity="0.7" d="M575.941 282.769H423.425V443.224H575.941V282.769Z" fill="#FEFAE0" fill-opacity="0.5"/>
<path d="M423.427 282.769H270.912V443.224H423.427V282.769Z" fill="#DDA15E" fill-opacity="0.5"/>
<path opacity="0.7" d="M880.972 282.769H728.457V443.224H880.972V282.769Z" fill="#FEFAE0" fill-opacity="0.5"/>
<path d="M728.456 282.769H575.941V443.224H728.456V282.769Z" fill="#DDA15E" fill-opacity="0.5"/>
<path opacity="0.7" d="M1186 282.769H1033.49V443.224H1186V282.769Z" fill="#FEFAE0" fill-opacity="0.5"/>
<path d="M1033.49 282.769H880.97V443.224H1033.49V282.769Z" fill="#DDA15E" fill-opacity="0.5"/>
<path opacity="0.7" d="M118.396 443.222H0V603.676H118.396V443.222Z" fill="#FEFAE0" fill-opacity="0.5"/>
<path opacity="0.7" d="M423.427 443.222H270.912V603.676H423.427V443.222Z" fill="#FEFAE0" fill-opacity="0.5"/>
<path d="M270.912 443.222H118.396V603.676H270.912V443.222Z" fill="#DDA15E" fill-opacity="0.5"/>
<path opacity="0.7" d="M728.456 443.222H575.941V603.676H728.456V443.222Z" fill="#FEFAE0" fill-opacity="0.5"/>
<path d="M575.941 443.222H423.425V603.676H575.941V443.222Z" fill="#DDA15E" fill-opacity="0.5"/>
<path opacity="0.7" d="M1033.49 443.222H880.97V603.676H1033.49V443.222Z" fill="#FEFAE0" fill-opacity="0.5"/>
<path d="M880.972 443.222H728.457V603.676H880.972V443.222Z" fill="#DDA15E" fill-opacity="0.5"/>
<path d="M1186 443.222H1033.49V603.676H1186V443.222Z" fill="#DDA15E" fill-opacity="0.5"/>
<path opacity="0.7" d="M270.912 603.676H118.396V764.131H270.912V603.676Z" fill="#FEFAE0" fill-opacity="0.5"/>
<path d="M118.396 603.676H0V764.131H118.396V603.676Z" fill="#DDA15E" fill-opacity="0.5"/>
<path opacity="0.7" d="M575.941 603.676H423.425V764.131H575.941V603.676Z" fill="#FEFAE0" fill-opacity="0.5"/>
<path d="M423.427 603.676H270.912V764.131H423.427V603.676Z" fill="#DDA15E" fill-opacity="0.5"/>
<path opacity="0.7" d="M880.972 603.676H728.457V764.131H880.972V603.676Z" fill="#FEFAE0" fill-opacity="0.5"/>
<path d="M728.456 603.676H575.941V764.131H728.456V603.676Z" fill="#DDA15E" fill-opacity="0.5"/>
<path opacity="0.7" d="M1186 603.676H1033.49V764.131H1186V603.676Z" fill="#FEFAE0" fill-opacity="0.5"/>
<path d="M1033.49 603.676H880.97V764.131H1033.49V603.676Z" fill="#DDA15E" fill-opacity="0.5"/>
<path d="M118.396 924.583H0V1027H118.396V924.583Z" fill="#DDA15E" fill-opacity="0.5"/>
<path d="M423.427 924.583H270.912V1027H423.427V924.583Z" fill="#DDA15E" fill-opacity="0.5"/>
<path opacity="0.7" d="M270.912 924.583H118.396V1027H270.912V924.583Z" fill="#FEFAE0" fill-opacity="0.5"/>
<path d="M728.456 924.583H575.941V1027H728.456V924.583Z" fill="#DDA15E" fill-opacity="0.5"/>
<path opacity="0.7" d="M575.941 924.583H423.425V1027H575.941V924.583Z" fill="#FEFAE0" fill-opacity="0.5"/>
<path d="M1033.49 924.583H880.97V1027H1033.49V924.583Z" fill="#DDA15E" fill-opacity="0.5"/>
<path opacity="0.7" d="M880.972 924.583H728.457V1027H880.972V924.583Z" fill="#FEFAE0" fill-opacity="0.5"/>
<path opacity="0.7" d="M1186 924.583H1033.49V1027H1186V924.583Z" fill="#FEFAE0" fill-opacity="0.5"/>
<path d="M1338.52 3H1186V122.312H1338.52V3Z" fill="#DDA15E" fill-opacity="0.5"/>
<path opacity="0.7" d="M1338.52 122.314H1186V282.769H1338.52V122.314Z" fill="#FEFAE0" fill-opacity="0.5"/>
<path d="M1338.52 282.769H1186V443.224H1338.52V282.769Z" fill="#DDA15E" fill-opacity="0.5"/>
<path opacity="0.7" d="M1338.52 443.222H1186V603.676H1338.52V443.222Z" fill="#FEFAE0" fill-opacity="0.5"/>
<path d="M1338.52 603.676H1186V764.131H1338.52V603.676Z" fill="#DDA15E" fill-opacity="0.5"/>
<path d="M1338.52 924.583H1186V1027H1338.52V924.583Z" fill="#DDA15E" fill-opacity="0.5"/>
<path d="M270.912 764.131H118.396V924.586H270.912V764.131Z" fill="#DDA15E" fill-opacity="0.5"/>
<path opacity="0.7" d="M118.396 764.131H0V924.586H118.396V764.131Z" fill="#FEFAE0" fill-opacity="0.5"/>
<path d="M575.941 764.131H423.425V924.586H575.941V764.131Z" fill="#DDA15E" fill-opacity="0.5"/>
<path opacity="0.7" d="M423.427 764.131H270.912V924.586H423.427V764.131Z" fill="#FEFAE0" fill-opacity="0.5"/>
<path d="M880.972 764.131H728.457V924.586H880.972V764.131Z" fill="#DDA15E" fill-opacity="0.5"/>
<path opacity="0.7" d="M728.456 764.131H575.941V924.586H728.456V764.131Z" fill="#FEFAE0" fill-opacity="0.5"/>
<path d="M1186 764.131H1033.49V924.586H1186V764.131Z" fill="#DDA15E" fill-opacity="0.5"/>
<path opacity="0.7" d="M1033.49 764.131H880.97V924.586H1033.49V764.131Z" fill="#FEFAE0" fill-opacity="0.5"/>
<path opacity="0.7" d="M1338.52 764.131H1186V924.586H1338.52V764.131Z" fill="#FEFAE0" fill-opacity="0.5"/>
<path opacity="0.7" d="M1460 3H1338.52V122.312H1460V3Z" fill="#FEFAE0" fill-opacity="0.5"/>
<path d="M1460 122.314H1338.52V282.769H1460V122.314Z" fill="#DDA15E" fill-opacity="0.5"/>
<path opacity="0.7" d="M1460 282.769H1338.52V443.224H1460V282.769Z" fill="#FEFAE0" fill-opacity="0.5"/>
<path d="M1460 443.222H1338.52V603.676H1460V443.222Z" fill="#DDA15E" fill-opacity="0.5"/>
<path opacity="0.7" d="M1460 603.676H1338.52V764.131H1460V603.676Z" fill="#FEFAE0" fill-opacity="0.5"/>
<path opacity="0.7" d="M1460 924.583H1338.52V1027H1460V924.583Z" fill="#FEFAE0" fill-opacity="0.5"/>
<path d="M1460 764.131H1338.52V924.586H1460V764.131Z" fill="#DDA15E" fill-opacity="0.5"/>
</svg>

