<svg width="622" height="618" viewBox="0 0 622 618" fill="none" xmlns="http://www.w3.org/2000/svg">
<path d="M456.359 260.172C464.562 268.375 475.578 272.828 487.219 272.828C498.859 272.828 509.875 268.297 518.078 260.172L608.781 170.016C616.984 161.812 621.516 150.953 621.516 139.313C621.516 127.672 616.984 116.812 608.781 108.609L512.531 12.9844C496.047 -3.34375 467.297 -3.34375 450.813 12.9844L360.188 103.141C351.984 111.344 347.453 122.203 347.453 133.844C347.453 145.484 351.984 156.344 360.188 164.547L456.359 260.172ZM386.594 129.391L477.297 39.2344C478.859 37.6719 480.734 37.4375 481.672 37.4375C482.609 37.4375 484.484 37.6719 486.047 39.2344L582.297 134.938C583.859 136.5 584.094 138.375 584.094 139.313C584.094 140.25 583.859 142.125 582.297 143.688L491.672 233.844C490.109 235.406 488.234 235.641 487.297 235.641C486.359 235.641 484.484 235.406 482.922 233.844L386.594 138.219C385.031 136.656 384.797 134.781 384.797 133.844C384.797 132.906 385.031 130.953 386.594 129.391ZM164.953 358.688C148.469 342.359 119.641 342.359 103.234 358.688L91.2812 370.562C79.3281 382.516 66.6719 403.688 61.9844 419.859L22.0625 556.344C18.7031 567.75 20.1875 578.375 26.2031 586.344C31.6719 593.609 40.4219 597.75 50.1875 597.75C54.0938 597.75 58.2344 597.125 62.375 595.797L204.875 551.969C220.969 547.047 242.141 534.312 254.016 522.516L261.047 515.562C269.25 507.359 273.781 496.5 273.781 484.859C273.781 473.219 269.25 462.359 261.047 454.156L164.953 358.688ZM234.641 489.312L227.609 496.266C220.109 503.766 204.016 513.375 193.859 516.5L108.625 542.672L76.3594 504L97.9219 430.328C100.891 420.25 110.344 404.312 117.766 396.969L129.719 385.094C131.281 383.531 133.156 383.297 134.094 383.297C135.031 383.297 136.906 383.531 138.469 385.094L234.562 480.641C236.125 482.203 236.359 484.078 236.359 485.016C236.438 485.953 236.203 487.828 234.641 489.312ZM171.125 12.9844C154.641 -3.34375 125.891 -3.34375 109.406 12.9844L13.2344 108.609C5.03125 116.812 0.5 127.672 0.5 139.313C0.5 150.953 5.03125 161.812 13.2344 170.016L450.891 605.172C459.094 613.375 470.109 617.828 481.75 617.828C493.391 617.828 504.406 613.297 512.609 605.172L608.859 509.469C617.062 501.266 621.594 490.406 621.594 478.766C621.594 467.125 617.062 456.266 608.859 448.062L171.125 12.9844ZM582.297 483.141L486.125 578.844C484.563 580.406 482.688 580.641 481.75 580.641C480.812 580.641 478.938 580.406 477.375 578.844L39.7188 143.688C38.1563 142.125 37.9219 140.25 37.9219 139.313C37.9219 138.375 38.1563 136.5 39.7188 134.938L135.891 39.2344C137.453 37.6719 139.328 37.4375 140.266 37.4375C141.203 37.4375 143.078 37.6719 144.641 39.2344L157.687 52.2031L113.078 96.6563C105.734 103.922 105.734 115.719 113.078 122.984C116.75 126.578 121.516 128.453 126.281 128.453C131.047 128.453 135.891 126.656 139.484 122.984L184.172 78.5313L205.891 100.172L186.594 119.391C179.328 126.656 179.328 138.453 186.594 145.719C190.266 149.312 195.031 151.188 199.797 151.188C204.562 151.188 209.406 149.391 213 145.719L232.297 126.5L254.016 148.141L209.328 192.594C201.984 199.859 201.984 211.656 209.328 218.922C213 222.516 217.766 224.391 222.531 224.391C227.297 224.391 232.062 222.594 235.734 218.922L280.422 174.469L302.219 196.109L282.922 215.328C275.656 222.594 275.656 234.391 282.922 241.656C286.594 245.328 291.359 247.125 296.125 247.125C300.891 247.125 305.734 245.328 309.328 241.656L328.625 222.438L350.422 244.078L305.734 288.531C298.469 295.797 298.469 307.594 305.734 314.859C309.406 318.453 314.172 320.328 318.938 320.328C323.703 320.328 328.547 318.531 332.141 314.859L376.828 270.406L398.625 292.047L379.328 311.266C372.062 318.531 372.062 330.328 379.328 337.594C383 341.266 387.766 343.062 392.531 343.062C397.297 343.062 402.141 341.266 405.734 337.594L425.031 318.375L446.75 340.016L402.062 384.469C394.719 391.734 394.719 403.531 402.062 410.797C405.734 414.469 410.5 416.266 415.266 416.266C420.031 416.266 424.797 414.469 428.469 410.797L473.156 366.344L494.875 387.984L475.578 407.203C468.313 414.469 468.313 426.266 475.578 433.531C479.25 437.125 484.016 439 488.781 439C493.547 439 498.391 437.203 501.984 433.531L521.281 414.312L543.078 435.953L498.391 480.406C491.047 487.672 491.047 499.469 498.391 506.734C502.063 510.328 506.828 512.203 511.594 512.203C516.359 512.203 521.203 510.406 524.797 506.734L569.484 462.281L581.906 474.703C583.469 476.266 583.703 478.141 583.703 479.078C583.703 480.016 583.859 481.578 582.297 483.141Z" fill="#9BA646"/>
</svg>
